<svg width="68" height="58" viewBox="0 0 68 58" fill="none" xmlns="http://www.w3.org/2000/svg">
<path d="M13 23H55V55H13V23Z" fill="#9BB537"/>
<path d="M30 21C30 29.2843 23.2843 36 15 36C6.71573 36 0 29.2843 0 21C0 12.7157 6.71573 6 15 6C23.2843 6 30 12.7157 30 21Z" fill="#9BB537"/>
<path d="M49 15C49 23.2843 42.2843 30 34 30C25.7157 30 19 23.2843 19 15C19 6.71573 25.7157 0 34 0C42.2843 0 49 6.71573 49 15Z" fill="#9BB537"/>
<path d="M68 21C68 29.2843 61.2843 36 53 36C44.7157 36 38 29.2843 38 21C38 12.7157 44.7157 6 53 6C61.2843 6 68 12.7157 68 21Z" fill="#9BB537"/>
<path d="M13 53H55V56.7719C55 57.4502 54.4124 58 53.6875 58H14.3125C13.5876 58 13 57.4502 13 56.7719V53Z" fill="#F8F8F8"/>
<path d="M26 18.964C26 17.8793 26.6716 17 27.5 17C28.3284 17 29 17.8793 29 18.964V28.036C29 29.1207 28.3284 30 27.5 30C26.6716 30 26 29.1207 26 28.036V18.964Z" fill="#F8F8F8"/>
<path d="M31 18.964C31 17.8793 32.1193 17 33.5 17C34.8807 17 36 17.8793 36 18.964V28.036C36 29.1207 34.8807 30 33.5 30C32.1193 30 31 29.1207 31 28.036V18.964Z" fill="#F8F8F8"/>
<path d="M38 18.964C38 17.8793 38.8954 17 40 17C41.1046 17 42 17.8793 42 18.964V28.036C42 29.1207 41.1046 30 40 30C38.8954 30 38 29.1207 38 28.036V18.964Z" fill="#F8F8F8"/>
<path fill-rule="evenodd" clip-rule="evenodd" d="M51.084 5.67499C51.6069 5.62064 52.1377 5.59277 52.675 5.59277C59.4067 5.59277 65.1101 9.96557 67.063 16.0073C66.5401 16.0617 66.0093 16.0896 65.4719 16.0896C58.7403 16.0896 53.0369 11.7168 51.084 5.67499Z" fill="#050505"/>
</svg>
